<svg id="Layer_1" xmlns="http://www.w3.org/2000/svg" xmlns:xlink="http://www.w3.org/1999/xlink" width="184" height="63.7" viewBox="0 0 184 63.7" style="enable-background:new 0 0 184 63.7;"><style>.st0{fill:none;}
.st1{fill:#FF7C07;}
.st2{fill:#322927;}</style><rect y="0" class="st0" width="184" height="63.7"/><path class="st1" d="M2.8 47.8C4.9 49.1 7.3 50 9.6 50c3.6.0 6-2 6-5.6V43l-.1-.1c-1.4 1-3.4 1.5-5.4 1.5C4.6 44.5.0 40.3.0 34c0-6.1 4.3-11 10.9-11 2.1.0 3.9.5 5.3 1.2l4.5-.8v20.9c0 6.4-4.4 10.2-11 10.2-2.7.0-5.2-.6-7-1.5L2.8 47.8zm8.4-7.7c1.5.0 3.2-.5 4.3-1.3V28.6c-1.1-.6-2.7-1.1-4.3-1.1-3.8.0-6 2.9-6 6.3C5.2 37.4 7.6 40.1 11.2 40.1"/><path class="st1" d="M31 35.4c.6 3.5 3.4 5.3 7 5.3 2.7.0 5.2-1 7.2-2.4v4.8c-2 1.2-5 2-7.7 2-6.8.0-11.8-4.4-11.8-11 0-6.7 5-11.1 10.8-11.1 5.2.0 9.9 3.6 9.9 10.4.0.7.0 1.5-.1 2.1H31zm0-3.6h10.5c-.4-3.2-2.7-4.6-5.1-4.6C34 27.2 31.6 28.6 31 31.8"/><path class="st1" d="M51.5 23.4h5.2v2.3h.1c1.8-1.6 4.2-2.8 7-2.8 2.3.0 4.3.8 5.6 2.2 1.2 1.3 1.8 3.1 1.8 6.2v13.1H66V32.3c0-1.9-.3-2.9-.9-3.6-.6-.8-1.6-1.2-2.8-1.2-2.1.0-4.2 1.2-5.5 2.7v14.3h-5.2L51.5 23.4z"/><path class="st1" d="M81.2 35.4c.6 3.5 3.4 5.3 7 5.3 2.7.0 5.2-1 7.2-2.4v4.8c-2 1.2-5 2-7.7 2-6.8.0-11.8-4.4-11.8-11 0-6.7 5-11.1 10.8-11.1 5.2.0 9.9 3.6 9.9 10.4.0.7.0 1.5-.1 2.1H81.2zm0-3.6h10.5c-.4-3.2-2.7-4.6-5.1-4.6C84.2 27.2 81.8 28.6 81.2 31.8"/><path class="st2" d="M104.3 18c-1.1.0-1.9-.9-1.9-2 0-1.1.9-1.9 2-1.9s1.9.9 1.9 2C106.3 17.2 105.4 18 104.3 18m-1.2 5.4h2.5v21.1h-2.5V23.4z"/><path class="st2" d="M122.2 23c6.3.0 10.9 4.8 10.9 11s-4.6 11-10.9 11c-6.3.0-10.9-4.8-10.9-11S115.9 23 122.2 23m0 19.7c4.8.0 8.4-3.7 8.4-8.7s-3.6-8.7-8.4-8.7c-4.8.0-8.4 3.7-8.4 8.7C113.8 39 117.4 42.7 122.2 42.7"/><path class="st2" d="M138.8 36.2V23.4h2.5v12.3c0 2.6.3 4.3 1.3 5.4.9 1.1 2.4 1.6 4 1.6 3 0 5.6-1.8 7.6-3.9V23.4h2.5v21.1h-2.5v-3h-.1c-2 1.9-4.7 3.5-8 3.5-2.2.0-4.2-.7-5.5-2.2S138.8 39.4 138.8 36.2"/><path class="st2" d="M171.7 32.6c-3.2-.5-6.6-.8-6.6-3.8.0-1.6 1.1-2.7 2.7-3.2-.3-.7-.5-1.4-.6-2.2-2.8.8-4.6 2.7-4.6 5.6.0 4.3 4 5.3 7.5 5.9 3.3.5 6.8.9 6.8 4 0 2.5-2.3 3.8-5.8 3.8-2.8.0-5.7-.8-8-2.2v2.7c2.2 1.2 5.1 1.9 7.9 1.9 5.1.0 8.5-2.2 8.5-6.3C179.4 34.2 175.5 33.2 171.7 32.6"/><path class="st1" d="M183 .3c-.2-.2-.4-.3-.6-.3-.3.0-.5.2-.6.4.5 1.5.5 2.1.1 2.5C181.7 3 181.5 3 181.3 3c-.3.0-.6-.1-1.1-.4-1.1-.9-2.5-1.4-4-1.4-3.6.0-6.5 2.9-6.5 6.5.0 1.8.7 3.5 1.9 4.6.0.1.1.1.1.2 3.2 3.2 3.5 3.5 1 6-1.1 1-1.7 2.3-1.7 3.9.0 2.9 2.3 5.2 5.2 5.2 2.9.0 5.2-2.3 5.2-5.2.0-1.6-.7-2.9-1.8-3.9-2.5-2.6-2.2-2.9 1-6 .1-.1.1-.1.2-.2 1.2-1.2 1.9-2.8 1.9-4.6.0-.7-.1-1.3-.3-1.9.2-.1.3-.2.5-.4C184.3 4.1 184.4 1.7 183 .3M176.2 6.4c.7.0 1.3.6 1.3 1.3s-.6 1.3-1.3 1.3c-.7.0-1.3-.6-1.3-1.3C174.9 7 175.5 6.4 176.2 6.4m0 17c-.6.0-1-.4-1-1s.4-1 1-1 1 .4 1 1S176.8 23.4 176.2 23.4"/></svg>