<svg id="Layer_1" data-name="Layer 1" xmlns="http://www.w3.org/2000/svg" viewBox="0 0 110.03 179.35"><defs><style>.cls-1{fill:#fff;}</style></defs><title>icon</title><g id="Group_23" data-name="Group 23"><g id="Group_15" data-name="Group 15"><g id="Group_14" data-name="Group 14"><path id="Path_204" data-name="Path 204" class="cls-1" d="M110,85.89A55,55,0,1,0,25,132v17.33a30,30,0,0,0,60.06,0V132A55.2,55.2,0,0,0,110,85.89ZM74.44,149.32a19.42,19.42,0,0,1-38.84,0v-4.43H74.44Zm2.67-24.9a5.31,5.31,0,0,0-2.67,4.6v5.26H35.6V129a5.32,5.32,0,0,0-2.66-4.6,44.41,44.41,0,1,1,44.17,0Z"/></g></g><g id="Group_17" data-name="Group 17"><g id="Group_16" data-name="Group 16"><path id="Path_205" data-name="Path 205" class="cls-1" d="M55,0a5.3,5.3,0,0,0-5.3,5.3h0v9.31a5.3,5.3,0,1,0,10.6,0h0V5.3A5.3,5.3,0,0,0,55,0Z"/></g></g><g id="Group_19" data-name="Group 19"><g id="Group_18" data-name="Group 18"><path id="Path_206" data-name="Path 206" class="cls-1" d="M40.11,16l-3.3-8.71A5.3,5.3,0,0,0,26.89,11l3.29,8.71A5.31,5.31,0,1,0,40.11,16Z"/></g></g><g id="Group_21" data-name="Group 21"><g id="Group_20" data-name="Group 20"><path id="Path_207" data-name="Path 207" class="cls-1" d="M80.06,4.18a5.29,5.29,0,0,0-6.83,3.08L69.94,16a5.3,5.3,0,1,0,9.92,3.75L83.15,11A5.3,5.3,0,0,0,80.06,4.18Z"/></g></g></g><path class="cls-1" d="M26.82,85.56a5.14,5.14,0,0,1-4.45-7.72C29.84,65,42.47,55,56.14,51.23a5.14,5.14,0,0,1,2.74,9.91C47.74,64.22,37.42,72.39,31.27,83A5.14,5.14,0,0,1,26.82,85.56Z"/></svg>