<svg id="Layer_1" data-name="Layer 1" xmlns="http://www.w3.org/2000/svg" viewBox="0 0 141.27 179.35"><defs><style>.cls-1{fill:#fff;}</style></defs><title>icon</title><path class="cls-1" d="M79.21,12V60h50.06V167.31s0,0,0,0H12l0,0h0V12s0,0,0,0H79.21m50.06,155.35h0M91.21,0H12A12,12,0,0,0,0,12V167.35a12,12,0,0,0,12,12H129.27a12,12,0,0,0,12-12V48H91.21V0Z"/><polygon class="cls-1" points="91.21 0 141.27 47.96 91.21 47.96 91.21 0"/><path class="cls-1" d="M102.2,110.67H39.07a6,6,0,0,1,0-12H102.2a6,6,0,0,1,0,12Z"/><path class="cls-1" d="M102.2,141.91H39.07a6,6,0,1,1,0-12H102.2a6,6,0,1,1,0,12Z"/></svg>