<svg id="Layer_1" data-name="Layer 1" xmlns="http://www.w3.org/2000/svg" viewBox="0 0 205.61 144.53"><defs><style>.cls-1{fill:#fff;}</style></defs><title>icon</title><path class="cls-1" d="M156.87,40.81a16.28,16.28,0,1,1-16.28,16.28,16.29,16.29,0,0,1,16.28-16.28m0-12a28.28,28.28,0,1,0,28.28,28.28,28.28,28.28,0,0,0-28.28-28.28Z"/><path class="cls-1" d="M168,104.82a25.69,25.69,0,0,1,25.66,25.66v1.82H120.93v-1.82a25.69,25.69,0,0,1,25.66-25.66H168m0-12H146.59a37.77,37.77,0,0,0-37.66,37.66V144.3h96.68V130.48A37.77,37.77,0,0,0,168,92.82Z"/><path class="cls-1" d="M60,12A23.4,23.4,0,1,1,36.6,35.39,23.42,23.42,0,0,1,60,12M60,0a35.4,35.4,0,1,0,35.4,35.39A35.4,35.4,0,0,0,60,0Z"/><path class="cls-1" d="M73.86,92.11A35.17,35.17,0,0,1,109,127.24v5.29H12v-5.29A35.17,35.17,0,0,1,47.13,92.11H73.86m0-12H47.13A47.27,47.27,0,0,0,0,127.24v17.29H121V127.24A47.27,47.27,0,0,0,73.86,80.11Z"/></svg>