<svg id="Layer_1" data-name="Layer 1" xmlns="http://www.w3.org/2000/svg" viewBox="0 0 174.05 226.79"><defs><style>.cls-1{fill:#333;}</style></defs><title>icon_scroll_down</title><path class="cls-1" d="M168.81,13.67l-8.43-8.42a18,18,0,0,0-25.44,0L87,53.16,39.12,5.25a18,18,0,0,0-25.45,0L5.25,13.67a18,18,0,0,0,0,25.45l69,69a18.1,18.1,0,0,0,25.49,0l69-69A18.06,18.06,0,0,0,168.81,13.67Z"/><path class="cls-1" d="M168.81,127.07l-8.43-8.42a18,18,0,0,0-25.44,0L87,166.56,39.12,118.65a18,18,0,0,0-25.45,0l-8.42,8.42a18,18,0,0,0,0,25.44l69,69a18.12,18.12,0,0,0,25.49,0l69-69A18.05,18.05,0,0,0,168.81,127.07Z"/></svg>