<svg id="Layer_1" data-name="Layer 1" xmlns="http://www.w3.org/2000/svg" viewBox="0 0 191.76 189.13"><defs><style>.cls-1{fill:#fff;}</style></defs><title>icon</title><path class="cls-1" d="M24.08,189.13a11.19,11.19,0,0,1-8-3.3L3.29,173a11.28,11.28,0,0,1,0-15.93l12.16-12.15a11.27,11.27,0,0,1,2.62-11.8l12.57-12.57a11.28,11.28,0,0,1,1.76-13.65l71.49-71.49A11.3,11.3,0,0,1,105.14,21L122.81,3.3a11.26,11.26,0,0,1,15.93,0L188.46,53a11.26,11.26,0,0,1,0,15.93L170.79,86.62a11.29,11.29,0,0,1-15.45.45l-28.85,28.85L118,107.43l37.32-37.32,7.5,7.51L179.46,61,130.78,12.3,114.14,28.93l6.6,6.61L41.4,114.88l6,5.94L27.08,141.09l4.58,4.59L12.3,165.05l11.78,11.78,19.37-19.37,6.38,6.38L70.1,143.57,76,149.46l18.31-18.31,8.49,8.48L84,158.46a11.29,11.29,0,0,1-13.58,1.81L57.8,172.85a11.3,11.3,0,0,1-14.19,1.43L32.05,185.83A11.18,11.18,0,0,1,24.08,189.13Z"/><rect class="cls-1" x="27.31" y="141.48" width="12" height="28.66" transform="translate(-100.42 69.19) rotate(-45)"/><rect class="cls-1" x="48.48" y="114.36" width="12" height="44.17" transform="translate(-80.52 78.49) rotate(-45)"/><rect class="cls-1" x="127.79" y="26.62" width="12" height="60.9" transform="translate(-1.17 111.32) rotate(-45)"/><path class="cls-1" d="M113.06,147.79a23.23,23.23,0,1,1,23.23-23.22A23.25,23.25,0,0,1,113.06,147.79Zm0-34.45a11.23,11.23,0,1,0,11.23,11.23A11.25,11.25,0,0,0,113.06,113.34Z"/></svg>